#!OML:ASF F:\VICON\USERDATA\Patient Classification 1\PLAYGROUND\JustinFriday\JustinFriday.ASF
:FULLY-SPECIFIED
:DEGREES
3068
root -0.8614 9.17157 6.23784 -967.381 -180.051 174.795
lowerback 21.1128 1.94638 -2.13342
upperback 5.30411 2.50668 4.8216
thorax -6.31963 1.28993 5.80413
lowerneck 12.819 -3.24205 -10.8084
upperneck 17.7222 -6.39433 7.26436
head 3.84938 -3.6757 4.07067
rclavicle -2.82274e-014 -2.34566e-014
rhumerus 72.2597 -28.7858 -34.1428
rradius 58.9742
rwrist 360.392
rhand 11.9685 -33.2167
rfingers 7.12502
rthumb 36.9909 660.717
lclavicle -2.82274e-014 -2.34566e-014
lhumerus 63.0658 23.1808 10.8848
lradius 52.0766
lwrist 36.7117
lhand 2.51233 10.3739
lfingers 7.12502
lthumb 27.9945 38.3061
rfemur -11.573 -18.7611 -2.855
rtibia 109.666
rfoot -25.4918 5.08885
rtoes -6.19007
lfemur -16.298 4.46849 -2.64841
ltibia 115.061
lfoot -29.0244 -8.30823
ltoes -21.75
3069
root -0.844654 9.2655 6.45398 -966.166 -177.631 172.767
lowerback 19.8796 1.6885 0.923116
upperback 4.85659 2.88507 5.89452
thorax -6.12079 1.45385 5.1235
lowerneck 13.4218 -3.3232 -10.9486
upperneck 17.6467 -6.58632 7.41316
head 3.76275 -3.78533 4.15518
rclavicle -3.26007e-014 -1.66979e-014
rhumerus 71.597 -30.2896 -34.5104
rradius 62.1673
rwrist 360.491
rhand 11.9288 -34.0218
rfingers 7.12502
rthumb 36.9534 659.902
lclavicle -3.26007e-014 -1.66979e-014
lhumerus 63.0645 23.9752 10.5916
lradius 52.8029
lwrist 38.0574
lhand 2.94241 10.7145
lfingers 7.12502
lthumb 28.4055 38.5789
rfemur -11.3932 -19.1117 1.30623
rtibia 109.596
rfoot -26.2668 3.72778
rtoes -6.63314
lfemur -17.1338 4.24032 1.96773
ltibia 115.89
lfoot -29.9079 -9.55145
ltoes -21.0974
3070
root -0.805981 9.3808 6.67503 -965.087 -176.179 170.875
lowerback 18.4422 1.37181 3.33795
upperback 4.5429 2.93129 6.64125
thorax -5.62256 1.45727 4.55716
lowerneck 13.8537 -3.30386 -11.0694
upperneck 17.5455 -6.61533 7.52252
head 3.67712 -3.80944 4.22146
rclavicle -2.0276e-014 -3.33958e-014
rhumerus 71.18 -31.7731 -35.4311
rradius 65.8306
rwrist 360.926
rhand 10.9765 -34.1003
rfingers 7.12502
rthumb 36.0519 659.596
lclavicle -2.0276e-014 -3.33958e-014
lhumerus 62.6143 24.8797 9.86327
lradius 53.65
lwrist 39.6392
lhand 3.09326 10.8463
lfingers 7.12502
lthumb 28.5497 38.6866
rfemur -10.5402 -19.5888 3.89369
rtibia 109.252
rfoot -27.1553 2.89132
rtoes -6.80019
lfemur -17.5773 3.32624 4.69258
ltibia 116.328
lfoot -30.3621 -9.99814
ltoes -20.3566
3071
root -0.771968 9.50368 6.89105 -964.425 -176.208 169.764
lowerback 17.5322 1.27505 4.04201
upperback 4.22328 2.90147 6.83863
thorax -5.45334 1.43894 4.38752
lowerneck 14.7536 -3.23941 -10.9869
upperneck 16.9127 -6.59035 7.69512
head 3.34806 -3.7984 4.28755
rclavicle -1.94809e-014 -3.26007e-014
rhumerus 70.5515 -33.216 -36.8584
rradius 69.9675
rwrist 362.026
rhand 9.7868 -33.1437
rfingers 7.12502
rthumb 34.9241 660.283
lclavicle -1.94809e-014 -3.26007e-014
lhumerus 62.3463 25.7514 8.79907
lradius 54.2181
lwrist 41.5468
lhand 3.32766 11.1671
lfingers 7.12502
lthumb 28.7736 38.9696
rfemur -9.19744 -20.1263 4.0533
rtibia 108.928
rfoot -28.1362 2.35274
rtoes -7.49297
lfemur -17.4403 2.19073 5.0816
ltibia 116.499
lfoot -30.3869 -10.2873
ltoes -20.3439
3072
root -0.745875 9.62636 7.12556 -965.059 -181.117 171.845
lowerback 17.8966 2.05655 -1.3345
upperback 4.2438 2.89049 5.47543
thorax -5.81069 1.49343 5.98994
lowerneck 15.8798 -3.30528 -10.5351
upperneck 16.1287 -6.66527 7.48857
head 2.93303 -3.82892 4.17947
rclavicle 2.22639e-014 -3.97569e-015
rhumerus 69.7159 -34.6914 -38.4819
rradius 74.563
rwrist 363.406
rhand 8.8621 -31.923
rfingers 7.12502
rthumb 34.0463 661.303
lclavicle 2.22639e-014 -3.97569e-015
lhumerus 62.0721 25.7174 9.806
lradius 55.1638
lwrist 41.2006
lhand 3.80441 11.1237
lfingers 7.12502
lthumb 29.229 38.8478
rfemur -6.37972 -20.2034 -4.62528
rtibia 109.108
rfoot -30.094 3.59698
rtoes -9.06058
lfemur -15.2994 0.781372 -2.82102
ltibia 116.026
lfoot -29.3632 -8.48301
ltoes -19.0947
3073
root -0.723539 9.75011 7.31495 -963.726 -179.437 169.937
lowerback 16.3762 1.81968 1.05016
upperback 3.81027 3.02889 6.28706
thorax -5.4016 1.54089 5.48565
lowerneck 16.3384 -3.42782 -10.2851
upperneck 15.8654 -6.79389 7.25087
head 2.78637 -3.88727 4.07737
rclavicle -1.66979e-014 2.38542e-015
rhumerus 69.5755 -36.1557 -39.9459
rradius 78.8129
rwrist 365.031
rhand 7.66456 -30.3744
rfingers 7.12502
rthumb 32.908 662.606
lclavicle -1.66979e-014 2.38542e-015
lhumerus 61.4542 26.5363 9.29997
lradius 55.8675
lwrist 42.2456
lhand 4.07828 10.9495
lfingers 7.12502
lthumb 29.4904 38.6278
rfemur -6.19872 -20.8432 -1.03508
rtibia 108.676
rfoot -30.3155 2.02281
rtoes -9.7082
lfemur -16.1981 0.193763 0.616961
ltibia 116.373
lfoot -29.5803 -9.91922
ltoes -16.9292
3074
root -0.701238 9.85376 7.49925 -962.585 -178.268 168.131
lowerback 15.2292 1.71199 3.04492
upperback 3.4417 3.21743 7.02051
thorax -5.12631 1.61951 5.11727
lowerneck 16.3761 -3.52496 -10.4579
upperneck 15.8295 -6.95861 7.41476
head 2.79502 -3.97417 4.15962
rclavicle 7.95139e-016 -1.27222e-014
rhumerus 69.2728 -37.7298 -41.1193
rradius 83.2803
rwrist 366.264
rhand 5.90129 -28.7093
rfingers 7.12502
rthumb 31.2293 663.933
lclavicle 7.95139e-016 -1.27222e-014
lhumerus 61.3254 28.1286 7.54231
lradius 55.695
lwrist 44.729
lhand 4.29393 10.8099
lfingers 7.12502
lthumb 29.6963 38.4518
rfemur -5.84157 -21.5121 1.77734
rtibia 108.277
rfoot -30.5543 0.558926
rtoes -10.844
lfemur -16.9846 -0.596049 3.27514
ltibia 116.719
lfoot -29.8631 -10.5538
ltoes -16.5419
3075
root -0.679178 9.95429 7.67953 -961.571 -177.612 166.762
lowerback 14.3069 1.87545 4.54205
upperback 3.12463 3.64647 7.46439
thorax -4.92835 1.82181 4.68141
lowerneck 16.441 -3.77485 -10.7343
upperneck 15.6304 -7.38525 8.00943
head 2.78796 -4.19252 4.39808
rclavicle -5.00937e-014 -2.22639e-014
rhumerus 68.3364 -39.81 -41.8088
rradius 87.9691
rwrist 367.089
rhand 3.52247 -27.7101
rfingers 7.12502
rthumb 28.9597 664.519
lclavicle -5.00937e-014 -2.22639e-014
lhumerus 61.942 29.2666 7.67695
lradius 55.6483
lwrist 45.8629
lhand 4.7361 10.6484
lfingers 7.12502
lthumb 30.1182 38.2142
rfemur -5.54616 -22.0124 3.68004
rtibia 107.928
rfoot -30.7563 -0.681661
rtoes -11.7282
lfemur -17.5204 -1.1696 5.12834
ltibia 117.053
lfoot -30.4731 -10.4061
ltoes -18.739
